<svg xmlns="http://www.w3.org/2000/svg" xmlns:xlink="http://www.w3.org/1999/xlink" width="500" zoomAndPan="magnify" viewBox="0 0 375 374.999991" height="500" preserveAspectRatio="xMidYMid meet" version="1.0"><defs><g/></defs><g fill="#000000" fill-opacity="1"><g transform="translate(155.662494, 193.124987)"><g><path d="M 0.34375 3.84375 C -0.15625 3.84375 -0.5625 3.78125 -0.875 3.65625 L -0.875 2.59375 C -0.507812 2.695312 -0.148438 2.75 0.203125 2.75 C 0.609375 2.75 0.90625 2.640625 1.09375 2.421875 C 1.28125 2.203125 1.375 1.863281 1.375 1.40625 L 1.375 -8.5625 L 2.671875 -8.5625 L 2.671875 1.3125 C 2.671875 3 1.894531 3.84375 0.34375 3.84375 Z M 1.265625 -10.890625 C 1.265625 -11.179688 1.335938 -11.394531 1.484375 -11.53125 C 1.628906 -11.675781 1.8125 -11.75 2.03125 -11.75 C 2.238281 -11.75 2.414062 -11.675781 2.5625 -11.53125 C 2.71875 -11.394531 2.796875 -11.179688 2.796875 -10.890625 C 2.796875 -10.597656 2.71875 -10.378906 2.5625 -10.234375 C 2.414062 -10.085938 2.238281 -10.015625 2.03125 -10.015625 C 1.8125 -10.015625 1.628906 -10.085938 1.484375 -10.234375 C 1.335938 -10.378906 1.265625 -10.597656 1.265625 -10.890625 Z M 1.265625 -10.890625 "/></g></g></g><g fill="#000000" fill-opacity="1"><g transform="translate(159.708381, 193.124987)"><g><path d="M 2.65625 -4.390625 C 2.882812 -4.703125 3.226562 -5.117188 3.6875 -5.640625 L 6.453125 -8.5625 L 7.984375 -8.5625 L 4.515625 -4.921875 L 8.234375 0 L 6.65625 0 L 3.640625 -4.046875 L 2.65625 -3.203125 L 2.65625 0 L 1.375 0 L 1.375 -12.15625 L 2.65625 -12.15625 L 2.65625 -5.71875 C 2.65625 -5.425781 2.632812 -4.984375 2.59375 -4.390625 Z M 2.65625 -4.390625 "/></g></g></g><g fill="#000000" fill-opacity="1"><g transform="translate(168.104773, 193.124987)"><g><path d="M 3.4375 -4.390625 L 0.46875 -8.5625 L 1.9375 -8.5625 L 4.203125 -5.28125 L 6.453125 -8.5625 L 7.90625 -8.5625 L 4.9375 -4.390625 L 8.0625 0 L 6.59375 0 L 4.203125 -3.46875 L 1.78125 0 L 0.3125 0 Z M 3.4375 -4.390625 "/></g></g></g><g fill="#000000" fill-opacity="1"><g transform="translate(176.485544, 193.124987)"><g><path d="M 3.25 0 L 0 -8.5625 L 1.390625 -8.5625 L 3.234375 -3.484375 C 3.648438 -2.296875 3.894531 -1.523438 3.96875 -1.171875 L 4.03125 -1.171875 C 4.09375 -1.453125 4.273438 -2.023438 4.578125 -2.890625 C 4.878906 -3.753906 5.5625 -5.644531 6.625 -8.5625 L 8.015625 -8.5625 L 4.765625 0 Z M 3.25 0 "/></g></g></g><g fill="#000000" fill-opacity="1"><g transform="translate(184.499212, 193.124987)"><g><path d="M 5.359375 -8.703125 C 6.484375 -8.703125 7.359375 -8.316406 7.984375 -7.546875 C 8.609375 -6.785156 8.921875 -5.703125 8.921875 -4.296875 C 8.921875 -2.890625 8.601562 -1.796875 7.96875 -1.015625 C 7.34375 -0.234375 6.472656 0.15625 5.359375 0.15625 C 4.804688 0.15625 4.296875 0.0507812 3.828125 -0.15625 C 3.367188 -0.363281 2.984375 -0.679688 2.671875 -1.109375 L 2.578125 -1.109375 L 2.3125 0 L 1.375 0 L 1.375 -12.15625 L 2.671875 -12.15625 L 2.671875 -9.203125 C 2.671875 -8.546875 2.648438 -7.953125 2.609375 -7.421875 L 2.671875 -7.421875 C 3.273438 -8.273438 4.171875 -8.703125 5.359375 -8.703125 Z M 5.171875 -7.625 C 4.285156 -7.625 3.644531 -7.367188 3.25 -6.859375 C 2.863281 -6.347656 2.671875 -5.492188 2.671875 -4.296875 C 2.671875 -3.085938 2.867188 -2.222656 3.265625 -1.703125 C 3.671875 -1.191406 4.316406 -0.9375 5.203125 -0.9375 C 6.003906 -0.9375 6.597656 -1.222656 6.984375 -1.796875 C 7.378906 -2.378906 7.578125 -3.21875 7.578125 -4.3125 C 7.578125 -5.425781 7.378906 -6.253906 6.984375 -6.796875 C 6.597656 -7.347656 5.992188 -7.625 5.171875 -7.625 Z M 5.171875 -7.625 "/></g></g></g><g fill="#000000" fill-opacity="1"><g transform="translate(194.301511, 193.124987)"><g><path d="M 2.59375 -8.5625 L 2.59375 -3.015625 C 2.59375 -2.316406 2.75 -1.796875 3.0625 -1.453125 C 3.382812 -1.109375 3.882812 -0.9375 4.5625 -0.9375 C 5.457031 -0.9375 6.113281 -1.179688 6.53125 -1.671875 C 6.945312 -2.160156 7.15625 -2.957031 7.15625 -4.0625 L 7.15625 -8.5625 L 8.453125 -8.5625 L 8.453125 0 L 7.375 0 L 7.1875 -1.15625 L 7.125 -1.15625 C 6.851562 -0.726562 6.484375 -0.398438 6.015625 -0.171875 C 5.546875 0.046875 5.007812 0.15625 4.40625 0.15625 C 3.363281 0.15625 2.582031 -0.0859375 2.0625 -0.578125 C 1.539062 -1.078125 1.28125 -1.875 1.28125 -2.96875 L 1.28125 -8.5625 Z M 2.59375 -8.5625 "/></g></g></g><g fill="#000000" fill-opacity="1"><g transform="translate(204.119431, 193.124987)"><g><path d="M 5.234375 -7.5625 L 3.0625 -7.5625 L 3.0625 0 L 1.765625 0 L 1.765625 -7.5625 L 0.234375 -7.5625 L 0.234375 -8.140625 L 1.765625 -8.609375 L 1.765625 -9.09375 C 1.765625 -11.195312 2.679688 -12.25 4.515625 -12.25 C 4.972656 -12.25 5.503906 -12.15625 6.109375 -11.96875 L 5.78125 -10.9375 C 5.28125 -11.09375 4.851562 -11.171875 4.5 -11.171875 C 4.007812 -11.171875 3.644531 -11.007812 3.40625 -10.6875 C 3.175781 -10.363281 3.0625 -9.84375 3.0625 -9.125 L 3.0625 -8.5625 L 5.234375 -8.5625 Z M 5.234375 -7.5625 "/></g></g></g><g fill="#000000" fill-opacity="1"><g transform="translate(209.539982, 193.124987)"><g><path d="M 7.203125 -1.15625 L 7.140625 -1.15625 C 6.535156 -0.28125 5.640625 0.15625 4.453125 0.15625 C 3.328125 0.15625 2.453125 -0.222656 1.828125 -0.984375 C 1.210938 -1.753906 0.90625 -2.847656 0.90625 -4.265625 C 0.90625 -5.671875 1.21875 -6.765625 1.84375 -7.546875 C 2.46875 -8.328125 3.335938 -8.71875 4.453125 -8.71875 C 5.609375 -8.71875 6.5 -8.296875 7.125 -7.453125 L 7.21875 -7.453125 L 7.171875 -8.078125 L 7.140625 -8.671875 L 7.140625 -12.15625 L 8.4375 -12.15625 L 8.4375 0 L 7.375 0 Z M 4.609375 -0.9375 C 5.492188 -0.9375 6.132812 -1.175781 6.53125 -1.65625 C 6.9375 -2.132812 7.140625 -2.910156 7.140625 -3.984375 L 7.140625 -4.265625 C 7.140625 -5.472656 6.9375 -6.335938 6.53125 -6.859375 C 6.125 -7.378906 5.476562 -7.640625 4.59375 -7.640625 C 3.832031 -7.640625 3.25 -7.34375 2.84375 -6.75 C 2.445312 -6.15625 2.25 -5.320312 2.25 -4.25 C 2.25 -3.15625 2.445312 -2.328125 2.84375 -1.765625 C 3.25 -1.210938 3.835938 -0.9375 4.609375 -0.9375 Z M 4.609375 -0.9375 "/></g></g></g><path fill="#bfbdbc" d="M 375 187.503906 C 375 291.054688 291.054688 375 187.503906 375 C 83.953125 375 0.0078125 291.054688 0.0078125 187.503906 C 0.0078125 83.949219 83.953125 0.0078125 187.503906 0.0078125 C 291.054688 0.0078125 375 83.949219 375 187.503906 " fill-opacity="1" fill-rule="nonzero"/><path fill="#ffffff" d="M 254.105469 128.230469 C 254.105469 165.144531 224.175781 195.070312 187.261719 195.070312 C 150.347656 195.070312 120.417969 165.144531 120.417969 128.230469 C 120.417969 91.3125 150.347656 61.386719 187.261719 61.386719 C 224.175781 61.386719 254.105469 91.3125 254.105469 128.230469 " fill-opacity="1" fill-rule="nonzero"/><path fill="#ffffff" d="M 187.261719 366.097656 C 234.5625 366.097656 277.765625 348.574219 310.75 319.675781 C 300.511719 252.816406 270.359375 206.414062 187.261719 206.414062 C 106.496094 206.414062 75.238281 253.011719 64.253906 320.105469 C 97.179688 348.75 140.191406 366.097656 187.261719 366.097656 " fill-opacity="1" fill-rule="nonzero"/></svg>