<?xml version="1.0" standalone="no"?>
<svg viewBox="0 0 200 200" xmlns="http://www.w3.org/2000/svg">
  <path fill="#EDAE14" d="M43.6,-75.1C56.7,-68,67.6,-56.7,76.4,-43.4C85.2,-30.2,91.9,-15.1,92.2,0.2C92.4,15.4,86.3,30.9,77.6,44.2C68.9,57.5,57.5,68.8,44.2,75.8C30.8,82.9,15.4,85.9,-0.1,86C-15.6,86.2,-31.1,83.5,-44.4,76.4C-57.7,69.2,-68.7,57.7,-77.4,44.2C-86.1,30.7,-92.5,15.4,-92.6,-0.1C-92.8,-15.5,-86.7,-31,-78.3,-45C-69.9,-58.9,-59.1,-71.3,-45.6,-78.2C-32.2,-85,-16.1,-86.4,-0.4,-85.7C15.3,-85,30.6,-82.2,43.6,-75.1Z" transform="translate(100 100)" />
</svg>
